<svg width="16" height="16" xmlns="http://www.w3.org/2000/svg">
 <g id="Layer_1">
  <title>Layer 1</title>
  <ellipse stroke="#000" stroke-width="0" ry="7.94103" rx="7.93207" id="svg_1" cy="7.99101" cx="7.98205" fill="#251c41"/>
  <g stroke="null">
   <path stroke="null" fill="white" d="m4.89714,8c-0.48452,0 -0.92469,0.40904 -0.92469,0.92472l0,3.08229c0,0.49769 0.43711,0.92469 0.92469,0.92469c0.5099,0 0.92469,-0.41478 0.92469,-0.92469l0,-3.08229c0,-0.50992 -0.4148,-0.92472 -0.92469,-0.92472z"/>
   <path stroke="null" fill="white" d="m8.02054,3.0683c-2.88935,0 -5.28102,2.35057 -5.28102,5.23994l0,0.00787c0.25838,-0.19559 0.57643,-0.3161 0.92469,-0.3161l0.0006,0c0.25246,-0.33521 0.63506,-0.54448 1.0507,-0.59495c0.39614,-1.43209 1.74858,-2.48736 3.30503,-2.48736c1.55645,0 2.86781,1.05528 3.26395,2.48736c0.41568,0.05047 0.79824,0.25973 1.05069,0.59495l0.0006,0c0.34824,0 0.66633,0.12052 0.92469,0.3161l0,-0.00787c0,-2.88937 -2.35058,-5.23994 -5.23994,-5.23994z"/>
   <path stroke="null" fill="white" d="m11.10288,8c-0.50992,0 -0.92469,0.4148 -0.92469,0.92472l0,3.08229c0,0.50992 0.41478,0.92469 0.92469,0.92469c0.49489,0 0.92469,-0.43106 0.92469,-0.92469l0,-3.08229c0,-0.52019 -0.44403,-0.92472 -0.92469,-0.92472z"/>
   <path stroke="null" fill="white" d="m2.73952,9.21239l0,1.84938c0,0.40115 0.25857,0.73947 0.61646,0.86698c0,-0.05857 0,-3.48564 0,-3.58339c-0.3579,0.12755 -0.61646,0.46583 -0.61646,0.86703z"/>
   <path stroke="null" fill="white" d="m12.644,8.34536c0,0.43948 0,3.46921 0,3.58344c0.35791,-0.12755 0.61648,-0.46583 0.61648,-0.86703l0,-1.84938c0,-0.4012 -0.25857,-0.73947 -0.61648,-0.86703z"/>
  </g>
 </g>

</svg>